<svg width="200" height="200" viewBox="0 0 200 200" fill="none" xmlns="http://www.w3.org/2000/svg">
    <!-- Transparent Background to fit any container -->
    
    <!-- Profile Silhouette with Rich Brown Skin Tone -->
    <g id="woman-profile">
        <!-- Face and Neck Profile (Smooth Curves) -->
        <path d="M108 58C92 58 82 68 80 78C78 88 77 98 80 108C82 118 90 128 102 133C100 138 97 143 87 145C77 145 70 141 67 133V158C72 163 82 168 102 168C127 168 142 153 142 123C142 98 127 58 108 58Z" fill="#8D5524"/>
        
        <!-- Closed Eye with Lashes -->
        <g id="eye-detail">
            <path d="M95 98C98 96 103 96 106 98" stroke="#4B3621" stroke-width="1.8" stroke-linecap="round" fill="none"/>
            <path d="M96 98L94 100" stroke="#4B3621" stroke-width="1" stroke-linecap="round"/>
            <path d="M99 97L98 100" stroke="#4B3621" stroke-width="1" stroke-linecap="round"/>
            <path d="M102 97L102 100" stroke="#4B3621" stroke-width="1" stroke-linecap="round"/>
            <path d="M105 98L106 100" stroke="#4B3621" stroke-width="1" stroke-linecap="round"/>
        </g>
        
        <!-- Curly Baby Hair Edges -->
        <g id="baby-hair" fill="#4B3621">
            <path d="M84 75C82 75 80 77 80 79C80 81 83 81 84 80" />
            <path d="M82 82C80 82 78 84 78 86C78 88 81 88 82 87" />
            <path d="M81 89C79 89 77 91 77 93C77 95 80 95 81 94" />
        </g>

        <!-- Detailed Turquoise/Teal Headwrap -->
        <g id="headwrap">
            <!-- Layers of folds -->
            <path d="M108 48C88 48 73 58 68 78C65 93 68 108 78 118C73 108 71 93 73 81C76 68 85 58 98 53C108 48 123 51 133 61C138 68 141 78 141 88C141 73 128 48 108 48Z" fill="#3D9B9D"/>
            <path d="M113 38C93 38 78 45 71 58C68 68 68 78 71 88C73 78 78 71 88 68C95 65 105 65 113 68C123 71 131 78 135 88C131 78 123 68 113 38Z" fill="#4FB3B5" fill-opacity="0.9"/>
            <path d="M118 53C108 53 98 58 93 68C91 73 91 78 93 83C95 78 98 73 103 71C108 68 115 68 121 71C128 73 133 78 135 85C133 78 128 68 118 53Z" fill="#368A8C" fill-opacity="0.8"/>
        </g>
    </g>
    
    <!-- Outer Teal Ring -->
    <circle cx="100" cy="100" r="94" stroke="#3D9B9D" stroke-width="4"/>
    
    <!-- Diagonal Airplane Outline (Lower Right) -->
    <g transform="translate(140, 140) rotate(45)">
        <path d="M5 15H25L35 5V15H45L50 10V30L45 25H35V35L25 25H5V15Z" stroke="#3D9B9D" stroke-width="3" fill="none" stroke-linejoin="round" stroke-linecap="round"/>
    </g>
</svg>
